<?xml version="1.0" encoding="utf-8"?>
<!-- Generator: Adobe Illustrator 23.0.3, SVG Export Plug-In . SVG Version: 6.00 Build 0)  -->
<svg version="1.1" id="Layer_1" xmlns="http://www.w3.org/2000/svg" xmlns:xlink="http://www.w3.org/1999/xlink" x="0px" y="0px"
	 width="631px" height="91px" viewBox="0 0 631 91" style="enable-background:new 0 0 631 91;" xml:space="preserve">
<style type="text/css">
	.st0{fill:#FFFFFF;}
	.st1{fill-rule:evenodd;clip-rule:evenodd;fill:#FFFFFF;}
</style>
<g>
	<g id="Page-1">
		<g transform="translate(-405.000000, -317.000000)">
			<g id="Content" transform="translate(405.000000, 317.000000)">
				<g id="Logo-color">
					<g id="Group">
						<g transform="translate(0.000000, 36.000000)">
							<g id="Path" transform="translate(0.000000, 12.000000)">
								<path class="st0" d="M52.1,26.7c-0.1,5.9-0.2,8-1.1,9.8c-1.6,3.5-4.9,5.2-11.3,5.6c-2.5,0.2-7.4,0.3-15.6,0.3
									c-11.8,0-15.6-0.6-18.9-2.7c-4-2.6-5.2-6.9-5.2-19C0,9.9,1.2,6,5.5,3.6c3.7-2.1,7.6-2.7,19.1-2.7c15.3,0,18.6,0.3,22.1,2
									c3.3,1.7,4.8,5.3,4.8,11.3v1.3H39.6c-0.2-4.5-1.2-4.8-12-4.8c-10.2,0-12,0.2-13.6,1.6c-1.5,1.3-1.8,3-1.8,9.6
									c0,9.8,0.9,10.5,12.9,10.5c9.3,0,10.6-0.1,12.3-0.8c1.8-0.7,2.5-2,2.5-5L52.1,26.7L52.1,26.7z"/>
								<polygon class="st0" points="59.1,1.2 71.5,1.2 71.5,42.1 59.1,42.1 								"/>
								<polygon class="st0" points="94.8,11.3 76.6,11.3 76.6,1.2 125.5,1.2 125.5,11.3 107.3,11.3 107.3,42.1 94.8,42.1 								
									"/>
								<polygon class="st0" points="175.9,1.2 175.9,10.4 142.8,10.4 142.8,17.5 174,17.5 174,25.6 142.8,25.6 142.8,32.8 
									176.3,32.8 176.3,42.1 130.6,42.1 130.6,1.2 								"/>
							</g>
							<g transform="translate(350.000000, 12.000000)">
								<polygon class="st0" points="18.4,11.3 0.2,11.3 0.2,1.2 49.1,1.2 49.1,11.3 30.8,11.3 30.8,42.1 18.4,42.1 								"/>
								<polygon class="st0" points="97.2,1.2 97.2,10.4 64.1,10.4 64.1,17.5 95.3,17.5 95.3,25.6 64.1,25.6 64.1,32.8 97.6,32.8 
									97.6,42.1 51.9,42.1 51.9,1.2 								"/>
								<polygon class="st0" points="101.7,1.2 121.5,1.2 136.4,28.3 151.2,1.2 170.8,1.2 170.8,42.1 158.7,42.1 159.3,10.5 
									141.2,42.1 131.2,42.1 113.4,10.5 113.7,42.1 101.7,42.1 								"/>
								<path id="Shape" class="st0" d="M176.4,1.2h31.3c7.9,0,9.9,0.2,12.5,1.5c4.1,2,5.6,5.8,5.6,13.5c0,7.8-1.4,11.8-4.8,13.9
									c-2.4,1.5-5.2,1.9-12.3,1.9h-20v10.1h-12.4L176.4,1.2L176.4,1.2z M206.9,22.1c5.1,0,6.6-1.1,6.6-5c0-4.9-1.2-6-6.6-6h-18.1
									v11H206.9z"/>
								<path class="st0" d="M241.5,29c0.1,2.8,0.4,3.5,1.9,4c0.9,0.4,4.4,0.6,8.3,0.6c14.4,0,16.1-0.4,16.1-3.8
									c0.1-1.4-0.7-2.8-2.1-3.3c-1.3-0.4-1.3-0.4-7.8-0.5h-11.3c-7.5,0-10.7-0.4-13.3-1.8c-2.9-1.5-4.3-4.8-4.3-10.4
									c0-7.4,2.1-10.5,8-11.9c3.3-0.9,8.1-1.2,17-1.2c14.4,0,17.7,0.4,20.6,2.3c2.8,1.9,3.7,4.4,3.7,10.5h-12.1c0-3.6-1.2-4-9.3-4
									c-4,0-9.3,0.1-11.3,0.2c-3.3,0.2-4.4,1.1-4.4,3.4c-0.1,1.6,1,3,2.6,3.2c0.7,0.2,1,0.2,5,0.3h11.6c1.1,0,6.6,0.2,8.7,0.3
									c7.8,0.4,10.9,3.8,10.9,12c0,7.5-2.2,10.9-8.2,12.1c-3.1,0.7-9.1,1-18,1c-14.2,0-17.3-0.3-20.9-2.1
									c-2.5-1.2-3.8-4.4-3.8-9.2c0-0.4,0-1.2,0.1-2L241.5,29z"/>
							</g>
							<g transform="translate(207.000000, 13.000000)">
								<path class="st0" d="M0.9,0.2h35.3c8.6,0,12.7,1,15.5,3.8c2.3,2.2,3.2,4.8,3.6,10c0.1,1.9,0.2,4.7,0.2,6.7
									c0,3.4-0.2,6.8-0.6,10.2c-0.5,4.7-4,8.6-8.6,9.6c-2.8,0.5-5.7,0.7-8.5,0.6h-37L0.9,0.2L0.9,0.2z M34.2,31.3
									c3.4,0,3.6,0,5.1-0.5c3-0.9,3.8-3.1,3.8-10.1c0-8.6-1.5-10.4-8.6-10.4H13.3v21H34.2z"/>
								<path class="st0" d="M72.9,0.2v20.2c0,4.5,0,4.6,0.2,5.7c0.6,4.6,2.6,5.5,12,5.5s11.9-0.2,13.4-1.4c1.2-0.9,1.8-2.7,1.9-5.8
									c0.1-0.9,0.1-0.9,0.1-5.5V0.2h12.4v21.5c0.1,10.1-0.7,13.1-4.4,16.4c-2.9,2.3-6.6,3.2-12,3.3c-1.9,0.1-3,0.1-5.5,0.1
									l-4.7,0.1c-11.5-0.1-13.8-0.2-16.8-1c-7.4-2.3-9.4-6.1-9.2-18.3v-22L72.9,0.2z"/>
							</g>
							<polygon class="st0" points="146.9,11 155.9,11 166.9,0 153.9,0 							"/>
						</g>
						<g transform="translate(276.000000, 0.000000)">
							<path id="path42" class="st1" d="M223.3,25.4h-7.7v-7.7h7.7V10h4.8c-4.8-6.1-13-8.6-20.3-6.1c-7.4,2.5-12.4,9.4-12.5,17.2
								s4.7,14.8,12,17.5c7.3,2.7,15.5,0.5,20.5-5.6h-4.5V25.4"/>
							<path id="path44" class="st1" d="M107.6,18.3h6C112.1,10.5,104.9,5,97,5.8s-14.1,7.3-14.1,15.3c-0.1,8,5.9,14.7,13.8,15.6
								s15.2-4.4,16.9-12.2h-5.9v-6.2"/>
							<path id="path46" class="st1" d="M21.7,18.5h3.6C23.8,12.2,17.9,8,11.5,8.7S0.3,14.8,0.2,21.2s4.6,11.9,11,12.8
								s12.4-3.2,14-9.4h-3.5V18.5"/>
							<path id="path48" class="st1" d="M334.2,16.4V6.8h-9.6v9.6H315V26h9.6v9.6h9.6V26h9.6v-9.6H334.2L334.2,16.4z M308.2,21.2
								c0-8.6,5.2-16.3,13.1-19.6s17-1.5,23.1,4.6s7.9,15.2,4.6,23.1s-11,13.1-19.6,13.1c-5.6,0-11-2.2-15-6.2
								S308.2,26.8,308.2,21.2L308.2,21.2z"/>
						</g>
					</g>
				</g>
			</g>
		</g>
	</g>
</g>
</svg>
