<?xml version="1.0" encoding="utf-8"?>
<!-- Generator: Adobe Illustrator 23.0.3, SVG Export Plug-In . SVG Version: 6.00 Build 0)  -->
<svg version="1.1" id="logo" xmlns="http://www.w3.org/2000/svg" xmlns:xlink="http://www.w3.org/1999/xlink" x="0px" y="0px"
	 width="190px" height="74px" viewBox="0 0 190 74" style="enable-background:new 0 0 190 74;" xml:space="preserve">
<style type="text/css">
	.st0{fill:#C40D2E;}
</style>
<title>logo_omega</title>
<g>
	<path class="st0" d="M36.3,43.7c-8.1,0-14.6,6.7-14.4,14.8l0,0c0,8.1,6.3,14.6,14.4,14.8l0,0c8.1-0.4,14.4-7.3,14-15.6
		C49.9,50.2,44,44.1,36.3,43.7z M46.4,58.5L46.4,58.5c0.2,5.7-4.3,10.5-9.9,10.5c0,0,0,0-0.2,0c-5.9,0-10.5-4.9-10.5-10.5
		s4.9-10.5,10.5-10.5C42,47.9,46.6,52.6,46.4,58.5C46.4,58.3,46.4,58.3,46.4,58.5z"/>
	<polygon class="st0" points="68.5,63 60.4,43.5 51.5,72.5 56,72.5 56,72.7 61,55.5 68.5,73.5 76,55.5 81.3,72.7 85.6,72.7 
		76.6,43.5 	"/>
	<path class="st0" d="M153.1,42.7l-14.8,29.8h4.7l0,0l3-5.9h14.6l2.8,5.9h4.7L153.1,42.7z M147.8,62.8l5.1-10.7l5.3,10.7H147.8z"/>
	<path class="st0" d="M138.7,57.5h-14v4.1h9.7c-1.2,4.5-5.3,7.5-9.9,7.5c-5.9,0-10.5-4.7-10.5-10.5s4.7-10.5,10.5-10.5l0,0
		c3.4,0,6.5,1.8,8.5,4.5l3.2-2.4c-2.6-3.9-7.1-6.3-11.8-6.3c-7.7,0-14.2,6.3-14.4,14c-0.2,7.9,6.1,14.6,14,14.8
		c7.9,0.2,14.6-6.1,14.8-14C138.7,58.1,138.7,57.9,138.7,57.5z"/>
	<path class="st0" d="M79.3,17.1c0-7.5,5.3-15,13.6-15c8.5,0,13.6,7.1,13.6,15c0,7.7-4.1,13.8-9.9,18.3l0.2,0.6h13.4l2.8-5.7h-1.4
		l-1.8,2.8h-6.9c5.3-3.4,8.5-9.3,8.7-15.6c0-10.7-9.3-17-18.9-17s-18.9,6.3-18.9,17c0.2,6.3,3.4,12.2,8.7,15.6h-6.9l-1.8-2.8h-1.4
		l2.8,5.7h13.4l0.4-0.6C83.3,30.9,79.3,24.6,79.3,17.1z"/>
	<polygon class="st0" points="89,72.5 105.8,72.5 105.8,68.4 93.3,68.4 93.3,60.5 105.4,60.5 105.4,56.5 93.3,56.5 93.3,48.4 
		105.8,48.4 105.8,44.3 89,44.3 	"/>
</g>
</svg>
