<?xml version="1.0" encoding="utf-8"?>
<!-- Generator: Adobe Illustrator 23.0.3, SVG Export Plug-In . SVG Version: 6.00 Build 0)  -->
<svg version="1.1" id="Layer_1" xmlns="http://www.w3.org/2000/svg" xmlns:xlink="http://www.w3.org/1999/xlink" x="0px" y="0px"
	 width="150px" height="380px" viewBox="0 0 150 380" style="enable-background:new 0 0 150 380;" xml:space="preserve">
<style type="text/css">
	.st0{fill:none;stroke:#FFFFFF;stroke-linecap:round;stroke-linejoin:round;}
	.st1{fill:none;stroke:#252525;stroke-linecap:round;stroke-linejoin:round;}
	.st2{fill:none;stroke:#FFFFFF;stroke-miterlimit:10;}
	.st3{fill:none;stroke:#FFFFFF;stroke-linecap:round;stroke-linejoin:round;stroke-miterlimit:10;}
	.st4{fill:none;stroke:#FFFFFF;stroke-width:1.5;stroke-linecap:round;stroke-linejoin:round;stroke-miterlimit:10;}
	.st5{fill:#FFFFFF;}
	.st6{fill:none;stroke:#FFFFFF;stroke-linejoin:round;stroke-miterlimit:10;}
	.st7{fill:none;stroke:#EB0027;stroke-miterlimit:10;}
	.st8{fill:none;stroke:#EB0027;stroke-linecap:round;stroke-linejoin:round;stroke-miterlimit:10;}
	.st9{fill:none;stroke:#EB0027;stroke-width:1.5;stroke-linecap:round;stroke-linejoin:round;stroke-miterlimit:10;}
	.st10{fill:#EB0027;}
	.st11{fill:none;stroke:#EB0027;stroke-linejoin:round;stroke-miterlimit:10;}
	.st12{fill:none;stroke:#EB0027;stroke-linecap:round;stroke-linejoin:round;}
	.st13{fill:none;stroke:#D3D3D3;stroke-linecap:round;stroke-linejoin:round;}
</style>
<circle class="st0" cx="8.5" cy="48.5" r="8"/>
<line class="st0" x1="18.5" y1="58.5" x2="14.1" y2="54.2"/>
<circle class="st1" cx="58.5" cy="48.5" r="8"/>
<line class="st1" x1="68.5" y1="58.5" x2="64.2" y2="54.2"/>
<path class="st2" d="M25.2,170.9h-0.4c-0.6-1.7-1.6-4.7-2.2-6.5c-0.8-2.6-1.7-3.9-3.9-3.9H8.3c-2.2,0-3,1.3-3.9,3.9
	c-0.6,1.8-1.6,4.8-2.2,6.5H1.8c-0.7,0-1.3,0.6-1.3,1.3v6.5c0,0.7,0.6,1.3,1.3,1.3v1.3c0,0.7,0.6,1.3,1.3,1.3h2.6
	c0.7,0,1.3-0.6,1.3-1.3V180h13v1.3c0,0.7,0.6,1.3,1.3,1.3h2.6c0.7,0,1.3-0.6,1.3-1.3V180c0.7,0,1.3-0.6,1.3-1.3v-6.5
	C26.5,171.5,25.9,170.9,25.2,170.9z M6.9,165.2c0.7-2.1,1-2.1,1.4-2.1h10.4c0.4,0,0.7,0,1.4,2.1c0.3,0.9,1.4,4.2,1.9,5.7H5
	C5.5,169.4,6.6,166.1,6.9,165.2z M5.1,177.7c-1.3,0-2.3-1-2.3-2.3s1-2.3,2.3-2.3s2.3,1,2.3,2.3S6.3,177.7,5.1,177.7z M22,173.2
	c1.3,0,2.3,1,2.3,2.3s-1,2.3-2.3,2.3s-2.3-1-2.3-2.3S20.7,173.2,22,173.2z"/>
<line class="st3" x1="8.9" y1="204.4" x2="7.7" y2="200.5"/>
<line class="st3" x1="18" y1="204.4" x2="19.4" y2="200.5"/>
<path class="st2" d="M25.2,210.6c-0.8-5.4-5.2-6.5-11.7-6.5s-10.9,1-11.7,6.5c-0.2,1.4-1.3,7.8-1.3,10.4c0,3.8,0,7.8,0,7.8
	c0,1.2,0.5,1.8,1.3,2.2v1.7c0,0.7,0.6,1.3,1.3,1.3h2.6c0.7,0,1.3-0.6,1.3-1.3v-1.3h13v1.3c0,0.7,0.6,1.3,1.3,1.3h2.6
	c0.7,0,1.3-0.6,1.3-1.3V231c0.8-0.4,1.3-1,1.3-2.2c0,0,0-3.4,0-7.8C26.5,218.4,25.3,211.5,25.2,210.6z M8.3,206.1h10.4
	c0.7,0,2,1.3,1.3,1.3H7C6.3,207.4,7.6,206.1,8.3,206.1z M6.3,227.9c-1.3,0-2.3-1-2.3-2.3s1-2.3,2.3-2.3s2.3,1,2.3,2.3
	S7.6,227.9,6.3,227.9z M20.6,227.9c-1.3,0-2.3-1-2.3-2.3s1-2.3,2.3-2.3s2.3,1,2.3,2.3S21.9,227.9,20.6,227.9z M22.1,219.7H4.9
	c-0.7,0-1.3-0.6-1.3-1.3c0-0.7,0.1-2.1,0.7-4.9c1-4.2,0.7-4.4,9.1-4.4s8.1,0.1,9.1,4.4c0.6,2.8,0.7,4.2,0.7,4.9
	C23.4,219.2,22.8,219.7,22.1,219.7z"/>
<g>
	<polygon class="st4" points="17.8,278.8 8,278.8 13.4,267.5 24.1,267.5 24.6,269 	"/>
	<g>
		<path class="st2" d="M13.2,273.4l-1.2,2.4c0.1,0.2,0.2,0.3,0.3,0.5H15C14.6,275.3,14,274.3,13.2,273.4z"/>
		<path class="st2" d="M12.3,281.2c-0.9,1.5-2.5,2.6-4.4,2.6c-2.8,0-5-2.2-5-5c0-2.7,2.1-4.8,4.8-5l1.2-2.4c-0.3,0-0.6-0.1-0.9-0.1
			c-4.1,0-7.5,3.3-7.5,7.5c0,4.1,3.3,7.5,7.5,7.5c3.3,0,6-2.1,7-5.1H12.3z"/>
	</g>
	<path class="st4" d="M27.6,260.5c-1.5,2.1-4.9,1.7-4.9,1.7s1.8,9.7,6.3,16.5"/>
	<path class="st2" d="M29,271.3c-0.4,0-0.7,0.1-1,0.1c0.3,0.8,0.7,1.6,1,2.4l0,0c2.8,0,5,2.2,5,5s-2.2,5-5,5s-5-2.2-5-5
		c0-1,0.3-1.9,0.8-2.7c-0.4-0.8-0.8-1.7-1.1-2.5c-1.3,1.3-2.1,3.2-2.1,5.2c0,4.1,3.3,7.5,7.5,7.5c4.1,0,7.5-3.3,7.5-7.5
		C36.5,274.6,33.2,271.3,29,271.3z"/>
	<line class="st4" x1="12.6" y1="265.5" x2="17.8" y2="278.8"/>
	<path class="st5" d="M15.6,264.5c0,0.6-0.7,0.7-3,1.3c-2.3,0.6-3.9,2.2-3.9-0.7c0-0.8,0.2-1,0.9-1c0.4,0,4.7,0,4.7,0
		C15,264,15.6,264,15.6,264.5z"/>
</g>
<g>
	<circle class="st6" cx="11.2" cy="303.1" r="2.6"/>
	<path class="st2" d="M18.3,312.8c0,0-4-1-5.2-2.6c-0.2-0.3-0.4-0.8-0.7-1.5c-0.4-1.4-1.7-2.3-3.1-2.4c-0.6,0-1.1,0.2-1.6,0.5
		l-4.1,3c0,0-2.4,3.3-2.9,4L0.6,314c-0.1,0.4,0.1,0.9,0.6,1.2c0.5,0.4,1.2,0.5,1.5,0.2l2.8-3.8l0.9-0.6l-0.7,3.7
		c-0.2,0.9,0.2,1.9,0.9,2.5l0.2,0.2l-1,3.1l-4.4,5.3c-0.2,0.4,0.1,1,0.7,1.5s1.2,0.6,1.6,0.4l4.8-5.7l1.1-2.3l1.6,1.3l2.7,7.2
		c0.2,0.3,0.7,0.4,1.3,0.2c0.7-0.2,1.2-0.7,1.1-1v-0.1l-2.9-7.9l-2.7-2.2l0.9-5.1c1.7,2,4.2,3.2,6.8,3.3h0.2
		c0.4-0.1,0.6-0.6,0.6-1.2C18.9,313.4,18.6,312.9,18.3,312.8z"/>
</g>
<path class="st7" d="M75.2,170.9h-0.4c-0.6-1.7-1.6-4.7-2.2-6.5c-0.8-2.6-1.7-3.9-3.9-3.9H58.3c-2.2,0-3,1.3-3.9,3.9
	c-0.6,1.8-1.6,4.8-2.2,6.5h-0.4c-0.7,0-1.3,0.6-1.3,1.3v6.5c0,0.7,0.6,1.3,1.3,1.3v1.3c0,0.7,0.6,1.3,1.3,1.3h2.6
	c0.7,0,1.3-0.6,1.3-1.3V180h13v1.3c0,0.7,0.6,1.3,1.3,1.3h2.6c0.7,0,1.3-0.6,1.3-1.3V180c0.7,0,1.3-0.6,1.3-1.3v-6.5
	C76.5,171.5,75.9,170.9,75.2,170.9z M56.9,165.2c0.7-2.1,1-2.1,1.4-2.1h10.4c0.4,0,0.7,0,1.4,2.1c0.3,0.9,1.4,4.2,1.9,5.7H55
	C55.5,169.4,56.6,166.1,56.9,165.2z M55,177.7c-1.3,0-2.3-1-2.3-2.3s1-2.3,2.3-2.3s2.3,1,2.3,2.3S56.3,177.7,55,177.7z M71.9,173.2
	c1.3,0,2.3,1,2.3,2.3s-1,2.3-2.3,2.3s-2.3-1-2.3-2.3S70.7,173.2,71.9,173.2z"/>
<line class="st8" x1="59" y1="204.4" x2="57.7" y2="200.5"/>
<line class="st8" x1="68.1" y1="204.4" x2="69.3" y2="200.5"/>
<path class="st7" d="M75.2,210.6c-0.8-5.4-5.2-6.5-11.7-6.5s-10.9,1-11.7,6.5c-0.2,1.4-1.3,7.8-1.3,10.4c0,3.8,0,7.8,0,7.8
	c0,1.2,0.5,1.8,1.3,2.2v1.7c0,0.7,0.6,1.3,1.3,1.3h2.6c0.7,0,1.3-0.6,1.3-1.3v-1.3h13v1.3c0,0.7,0.6,1.3,1.3,1.3h2.6
	c0.7,0,1.3-0.6,1.3-1.3V231c0.8-0.4,1.3-1,1.3-2.2c0,0,0-3.4,0-7.8C76.5,218.4,75.3,211.5,75.2,210.6z M58.3,206.1h10.4
	c0.7,0,2,1.3,1.3,1.3H57C56.3,207.4,57.6,206.1,58.3,206.1z M56.3,227.9c-1.3,0-2.3-1-2.3-2.3s1-2.3,2.3-2.3s2.3,1,2.3,2.3
	S57.6,227.9,56.3,227.9z M70.7,227.9c-1.3,0-2.3-1-2.3-2.3s1-2.3,2.3-2.3s2.3,1,2.3,2.3C72.9,226.9,71.9,227.9,70.7,227.9z
	 M72.1,219.7H54.9c-0.7,0-1.3-0.6-1.3-1.3c0-0.7,0.1-2.1,0.7-4.9c1-4.2,0.7-4.4,9.1-4.4s8.1,0.1,9.1,4.4c0.6,2.8,0.7,4.2,0.7,4.9
	C73.4,219.2,72.8,219.7,72.1,219.7z"/>
<g>
	<polygon class="st9" points="67.8,278.8 58,278.8 63.4,267.5 74.1,267.5 74.6,269 	"/>
	<g>
		<path class="st7" d="M63.2,273.4l-1.2,2.4c0.1,0.2,0.2,0.3,0.3,0.5H65C64.6,275.3,64,274.3,63.2,273.4z"/>
		<path class="st7" d="M62.3,281.2c-0.9,1.5-2.5,2.6-4.4,2.6c-2.8,0-5-2.2-5-5c0-2.7,2.1-4.8,4.8-5l1.2-2.4c-0.3,0-0.6-0.1-0.9-0.1
			c-4.1,0-7.5,3.3-7.5,7.5c0,4.1,3.3,7.5,7.5,7.5c3.3,0,6-2.1,7-5.1H62.3z"/>
	</g>
	<path class="st9" d="M77.6,260.5c-1.5,2.1-4.9,1.7-4.9,1.7s1.8,9.7,6.3,16.5"/>
	<path class="st7" d="M79,271.3c-0.4,0-0.7,0.1-1,0.1c0.3,0.8,0.7,1.6,1,2.4l0,0c2.8,0,5,2.2,5,5s-2.2,5-5,5s-5-2.2-5-5
		c0-1,0.3-1.9,0.8-2.7c-0.4-0.8-0.8-1.7-1.1-2.5c-1.3,1.3-2.1,3.2-2.1,5.2c0,4.1,3.3,7.5,7.5,7.5c4.1,0,7.5-3.3,7.5-7.5
		C86.5,274.6,83.2,271.3,79,271.3z"/>
	<line class="st9" x1="62.6" y1="265.5" x2="67.8" y2="278.8"/>
	<path class="st10" d="M65.6,264.5c0,0.6-0.7,0.7-3,1.3c-2.3,0.6-3.9,2.2-3.9-0.7c0-0.8,0.2-1,0.9-1c0.4,0,4.7,0,4.7,0
		C65,264,65.6,264,65.6,264.5z"/>
</g>
<g>
	<circle class="st11" cx="61.2" cy="303.1" r="2.6"/>
	<path class="st7" d="M68.3,312.8c0,0-4-1-5.2-2.6c-0.2-0.3-0.4-0.8-0.7-1.5c-0.4-1.4-1.7-2.3-3.1-2.4c-0.6,0-1.1,0.2-1.6,0.5
		l-4.1,3c0,0-2.4,3.3-2.9,4l-0.1,0.2c-0.1,0.4,0.1,0.9,0.6,1.2c0.5,0.4,1.2,0.5,1.5,0.2l2.8-3.8l0.9-0.6l-0.7,3.7
		c-0.2,0.9,0.2,1.9,0.9,2.5l0.2,0.2l-1,3.1l-4.4,5.3c-0.2,0.4,0.1,1,0.7,1.5c0.6,0.5,1.2,0.6,1.6,0.4l4.8-5.7l1.1-2.3l1.6,1.3
		l2.7,7.2c0.2,0.3,0.7,0.4,1.3,0.2c0.7-0.2,1.2-0.7,1.1-1v-0.1l-2.9-7.9l-2.7-2.2l0.9-5.1c1.7,2,4.2,3.2,6.8,3.3h0.2
		c0.4-0.1,0.6-0.6,0.6-1.2C68.9,313.4,68.6,312.9,68.3,312.8z"/>
</g>
<line class="st12" x1="0.5" y1="87.5" x2="18.5" y2="87.5"/>
<polyline class="st12" points="11.5,80.5 18.5,87.5 11.5,94.5 "/>
<line class="st12" x1="18.5" y1="107.5" x2="0.5" y2="107.5"/>
<polyline class="st12" points="7.5,114.5 0.5,107.5 7.5,100.5 "/>
<polyline class="st12" points="0.5,120.5 7.5,127.5 0.5,134.5 "/>
<polyline class="st0" points="50.5,120.5 57.5,127.5 50.5,134.5 "/>
<polyline class="st12" points="7.5,154.5 0.5,147.5 7.5,140.5 "/>
<polyline class="st0" points="57.5,154.5 50.5,147.5 57.5,140.5 "/>
<g>
	<line class="st0" x1="0.5" y1="7.5" x2="18.5" y2="7.5"/>
	<polyline class="st0" points="11.5,0.5 18.5,7.5 11.5,14.5 	"/>
</g>
<g>
	<line class="st1" x1="50.5" y1="7.5" x2="68.5" y2="7.5"/>
	<polyline class="st1" points="61.5,0.5 68.5,7.5 61.5,14.5 	"/>
</g>
<line class="st0" x1="50.5" y1="87.5" x2="68.5" y2="87.5"/>
<polyline class="st0" points="61.5,80.5 68.5,87.5 61.5,94.5 "/>
<line class="st0" x1="68.5" y1="107.5" x2="50.5" y2="107.5"/>
<polyline class="st0" points="57.5,114.5 50.5,107.5 57.5,100.5 "/>
<line class="st13" x1="100.5" y1="87.5" x2="118.5" y2="87.5"/>
<polyline class="st13" points="111.5,80.5 118.5,87.5 111.5,94.5 "/>
<line class="st13" x1="118.5" y1="107.5" x2="100.5" y2="107.5"/>
<polyline class="st13" points="107.5,114.5 100.5,107.5 107.5,100.5 "/>
</svg>
