<?xml version="1.0" encoding="utf-8"?>
<!-- Generator: Adobe Illustrator 23.0.3, SVG Export Plug-In . SVG Version: 6.00 Build 0)  -->
<svg version="1.1" id="Layer_1" xmlns="http://www.w3.org/2000/svg" xmlns:xlink="http://www.w3.org/1999/xlink" x="0px" y="0px"
	 width="190px" height="74px" viewBox="0 0 190 74" style="enable-background:new 0 0 190 74;" xml:space="preserve">
<style type="text/css">
	.st0{fill:#E2001A;}
	.st1{fill:#FFFFFF;}
</style>
<g>
	<g>
		<path d="M140.6,21.8v8.3c1.9-1.9,4.7-2.8,7.6-2.8c3.3,0,5.8,1.1,7.9,3c2,2,3,4.9,3,8.4v13.6h-4.3V38.6c0-2.2-0.4-3.9-1.5-5.2
			c-1.2-1.4-3-2-5-2c-2.2,0-4.1,0.7-5.4,2s-2.2,3.3-2.2,5.6v13.3h-4.3V21.8H140.6z"/>
		<path d="M99.4,52.1c-2,0-3.8-0.8-5-2c-1.2-1.2-1.9-3-1.9-4.9V21.8h4.3v6.1h7.7V32h-7.7v13c0,0.7,0.1,1.4,0.5,1.9
			c0.5,0.7,1.2,0.9,2,0.9h5.2v4.1h-5.2V52.1z"/>
		<path d="M45.7,27.8v16.7c0,1.2,0.4,2.3,1.1,3.1c0.7,0.7,1.8,1.1,2.8,1.1c1.1,0,2.2-0.4,2.8-1.1c0.7-0.7,1.1-1.8,1.1-3.1V27.8h4.3
			v16.7c0,2.4-0.8,4.5-2.3,6c-1.5,1.5-3.5,2.3-6,2.3c-2.3,0-4.5-0.8-6.1-2.4c-1.6,1.6-3.7,2.4-6.1,2.4c-2.3,0-4.5-0.8-6-2.3
			c-1.5-1.5-2.3-3.5-2.3-6V27.8h4.3v16.7c0,1.2,0.4,2.3,1.1,3.1c0.7,0.7,1.8,1.1,2.8,1.1c1.1,0,2.2-0.4,2.8-1.1
			c0.7-0.7,1.1-1.8,1.1-3.1V27.8H45.7z"/>
		<path d="M0.8,52.1V48h16c0.8,0,1.6-0.3,2.2-0.8c0.5-0.5,0.9-1.4,0.9-2.3c0-0.9-0.4-1.8-0.9-2.3c-0.5-0.5-1.4-0.8-2.2-0.8H7.3
			c-1.9,0-3.7-0.7-5-1.9c-1.4-1.2-2.3-3-2.3-5c0-2,0.8-3.8,2.2-5s3.1-1.9,5-1.9h16V32H7.5c-0.8,0-1.5,0.3-2,0.8
			c-0.5,0.5-0.8,1.2-0.8,2s0.4,1.5,0.8,2c0.5,0.5,1.2,0.7,2,0.7H17c2.2,0,3.9,0.7,5.3,2s2.2,3.1,2.2,5.3c0,2.2-0.8,3.9-2.2,5.3
			c-1.4,1.2-3.1,2-5.3,2H0.8V52.1z"/>
		<path d="M79.1,52.1c-1.4,0.5-2.7,0.7-4.1,0.7c-3.4,0-6.6-1.4-8.8-3.5c-2.3-2.3-3.5-5.4-3.5-9c0-3.4,1.2-6.6,3.5-9
			c2.3-2.3,5.3-3.5,8.8-3.5h10.6v24.3h-4.3V32H75c-2.4,0-4.5,0.9-5.8,2.4c-1.4,1.5-2.2,3.7-2.2,6c0,2.3,0.7,4.3,2.2,6
			c1.5,1.5,3.5,2.4,5.8,2.4c1.5,0,2.8-0.4,4.1-0.9V52.1z"/>
		<path d="M112,39.8c0,2.4,0.8,4.6,2.4,6.1c1.5,1.6,3.7,2.6,6.1,2.6c1.6,0,3.1-0.4,4.3-1.2c1.4-0.8,2.3-1.9,3-3.4l3.7,2.2
			c-1.1,2-2.7,3.7-4.6,4.9c-1.9,1.1-4.2,1.6-6.5,1.6c-3.5,0-6.8-1.4-9.1-3.7s-3.7-5.6-3.7-9.1c0-3.5,1.4-6.8,3.7-9.1
			s5.6-3.8,9.1-3.8c2.3,0,4.6,0.5,6.5,1.6c2,1.4,3.5,3,4.7,5l-3.8,2c-0.8-1.4-1.8-2.6-3-3.4c-1.2-0.8-2.7-1.2-4.3-1.2
			c-2.3,0-4.6,0.9-6.1,2.6C112.8,35.4,112,37.5,112,39.8z"/>
		<path d="M156.2,24c0-1.5,1.2-2.7,2.7-2.7s2.7,1.2,2.7,2.7s-1.2,2.7-2.7,2.7S156.2,25.5,156.2,24L156.2,24z M156.8,24
			c0,1.2,0.9,2.2,2.2,2.2c1.2,0,2.2-0.9,2.2-2.2s-0.9-2.2-2.2-2.2C157.7,21.8,156.8,22.8,156.8,24L156.8,24z M158.8,24.1h-0.4v1.2
			h-0.5v-2.8h1.5c0.5,0,0.8,0.3,0.8,0.8s-0.3,0.8-0.8,0.8l0.8,1.2h-0.5L158.8,24.1z M159.4,23.7c0.3,0,0.4-0.1,0.4-0.4
			s-0.1-0.4-0.4-0.4h-0.9v0.8C158.4,23.7,159.4,23.7,159.4,23.7z"/>
	</g>
	<g>
		<rect x="165.7" y="27.8" class="st0" width="24.3" height="24.3"/>
		<path class="st1" d="M180.8,37v-6.8h-5.8V37h-6.8v5.8h6.8v6.8h5.8v-6.8h6.8V37H180.8z"/>
	</g>
</g>
</svg>
