<?xml version="1.0" standalone="no"?>
<!DOCTYPE svg PUBLIC "-//W3C//DTD SVG 20010904//EN"
 "http://www.w3.org/TR/2001/REC-SVG-20010904/DTD/svg10.dtd">
<svg version="1.0" xmlns="http://www.w3.org/2000/svg"
 width="700.000000pt" height="700.000000pt" viewBox="0 0 700.000000 700.000000"
 preserveAspectRatio="xMidYMid meet">
<metadata>
Created by potrace 1.11, written by Peter Selinger 2001-2013
</metadata>
<g transform="translate(0.000000,700.000000) scale(0.100000,-0.100000)"
fill="#000000" stroke="none">
<path d="M3325 6834 c-33 -2 -123 -11 -200 -20 -1376 -152 -2514 -1144 -2858
-2489 -75 -290 -101 -507 -101 -825 -1 -299 25 -523 90 -789 299 -1228 1276
-2188 2507 -2466 659 -149 1320 -98 1957 150 1003 390 1754 1247 2019 2303 32
124 62 293 82 457 19 155 17 562 -5 730 -69 541 -246 1024 -537 1460 -543 813
-1394 1341 -2362 1465 -148 19 -471 32 -592 24z m927 -1826 l3 -753 753 -3
752 -2 0 -750 0 -750 -752 -2 -753 -3 -3 -752 -2 -753 -750 0 -750 0 -2 753
-3 752 -752 3 -753 2 0 750 0 750 753 2 752 3 3 753 2 752 750 0 750 0 2 -752z"/>
</g>
</svg>
